<svg width="25" height="24" viewBox="0 0 25 24" fill="none" xmlns="http://www.w3.org/2000/svg">
<g id="24:calendar-blank">
<path id="Vector" d="M20.125 3H17.875V2.25C17.875 2.05109 17.796 1.86032 17.6553 1.71967C17.5147 1.57902 17.3239 1.5 17.125 1.5C16.9261 1.5 16.7353 1.57902 16.5947 1.71967C16.454 1.86032 16.375 2.05109 16.375 2.25V3H8.875V2.25C8.875 2.05109 8.79598 1.86032 8.65533 1.71967C8.51468 1.57902 8.32391 1.5 8.125 1.5C7.92609 1.5 7.73532 1.57902 7.59467 1.71967C7.45402 1.86032 7.375 2.05109 7.375 2.25V3H5.125C4.72718 3 4.34564 3.15804 4.06434 3.43934C3.78304 3.72064 3.625 4.10218 3.625 4.5V19.5C3.625 19.8978 3.78304 20.2794 4.06434 20.5607C4.34564 20.842 4.72718 21 5.125 21H20.125C20.5228 21 20.9044 20.842 21.1857 20.5607C21.467 20.2794 21.625 19.8978 21.625 19.5V4.5C21.625 4.10218 21.467 3.72064 21.1857 3.43934C20.9044 3.15804 20.5228 3 20.125 3ZM7.375 4.5V5.25C7.375 5.44891 7.45402 5.63968 7.59467 5.78033C7.73532 5.92098 7.92609 6 8.125 6C8.32391 6 8.51468 5.92098 8.65533 5.78033C8.79598 5.63968 8.875 5.44891 8.875 5.25V4.5H16.375V5.25C16.375 5.44891 16.454 5.63968 16.5947 5.78033C16.7353 5.92098 16.9261 6 17.125 6C17.3239 6 17.5147 5.92098 17.6553 5.78033C17.796 5.63968 17.875 5.44891 17.875 5.25V4.5H20.125V7.5H5.125V4.5H7.375ZM20.125 19.5H5.125V9H20.125V19.5Z" fill="#777777"/>
</g>
</svg>
