<svg width="25" height="24" viewBox="0 0 25 24" fill="none" xmlns="http://www.w3.org/2000/svg">
<g id="24:house">
<path id="Vector" d="M21.2155 9.7288L13.7155 2.65255C13.7118 2.64935 13.7084 2.6459 13.7052 2.64223C13.4291 2.39111 13.0692 2.25195 12.696 2.25195C12.3227 2.25195 11.9629 2.39111 11.6868 2.64223L11.6764 2.65255L4.18488 9.7288C4.03207 9.86932 3.91009 10.04 3.82666 10.2301C3.74323 10.4202 3.70016 10.6256 3.7002 10.8332V19.5004C3.7002 19.8982 3.85823 20.2797 4.13954 20.561C4.42084 20.8423 4.80237 21.0004 5.2002 21.0004H9.7002C10.098 21.0004 10.4796 20.8423 10.7609 20.561C11.0422 20.2797 11.2002 19.8982 11.2002 19.5004V15.0004H14.2002V19.5004C14.2002 19.8982 14.3582 20.2797 14.6395 20.561C14.9208 20.8423 15.3024 21.0004 15.7002 21.0004H20.2002C20.598 21.0004 20.9796 20.8423 21.2609 20.561C21.5422 20.2797 21.7002 19.8982 21.7002 19.5004V10.8332C21.7002 10.6256 21.6572 10.4202 21.5737 10.2301C21.4903 10.04 21.3683 9.86932 21.2155 9.7288ZM20.2002 19.5004H15.7002V15.0004C15.7002 14.6025 15.5422 14.221 15.2609 13.9397C14.9796 13.6584 14.598 13.5004 14.2002 13.5004H11.2002C10.8024 13.5004 10.4208 13.6584 10.1395 13.9397C9.85823 14.221 9.7002 14.6025 9.7002 15.0004V19.5004H5.2002V10.8332L5.21051 10.8238L12.7002 3.75036L20.1908 10.8219L20.2011 10.8313L20.2002 19.5004Z" fill="#2288FF"/>
</g>
</svg>
