<svg width="25" height="24" viewBox="0 0 25 24" fill="none" xmlns="http://www.w3.org/2000/svg">
<g id="24:storefront">
<path id="Vector" d="M22.625 9C22.6254 8.93027 22.6159 8.86083 22.5969 8.79375L21.2516 4.0875C21.1611 3.77523 20.9721 3.50059 20.7128 3.30459C20.4534 3.10858 20.1376 3.00174 19.8125 3H5.9375C5.61241 3.00174 5.2966 3.10858 5.03723 3.30459C4.77787 3.50059 4.58886 3.77523 4.49844 4.0875L3.15406 8.79375C3.1347 8.86079 3.12491 8.93022 3.125 9V10.5C3.125 11.0822 3.26054 11.6563 3.5209 12.1771C3.78125 12.6978 4.15927 13.1507 4.625 13.5V19.5C4.625 19.8978 4.78304 20.2794 5.06434 20.5607C5.34564 20.842 5.72718 21 6.125 21H19.625C20.0228 21 20.4044 20.842 20.6857 20.5607C20.967 20.2794 21.125 19.8978 21.125 19.5V13.5C21.5907 13.1507 21.9687 12.6978 22.2291 12.1771C22.4895 11.6563 22.625 11.0822 22.625 10.5V9ZM5.9375 4.5H19.8125L20.8831 8.25H4.86969L5.9375 4.5ZM10.625 9.75H15.125V10.5C15.125 11.0967 14.8879 11.669 14.466 12.091C14.044 12.5129 13.4717 12.75 12.875 12.75C12.2783 12.75 11.706 12.5129 11.284 12.091C10.8621 11.669 10.625 11.0967 10.625 10.5V9.75ZM9.125 9.75V10.5C9.125 11.0967 8.88795 11.669 8.46599 12.091C8.04403 12.5129 7.47174 12.75 6.875 12.75C6.27826 12.75 5.70597 12.5129 5.28401 12.091C4.86205 11.669 4.625 11.0967 4.625 10.5V9.75H9.125ZM19.625 19.5H6.125V14.175C6.3719 14.2248 6.62313 14.2499 6.875 14.25C7.45717 14.25 8.03134 14.1145 8.55205 13.8541C9.07276 13.5937 9.5257 13.2157 9.875 12.75C10.2243 13.2157 10.6772 13.5937 11.1979 13.8541C11.7187 14.1145 12.2928 14.25 12.875 14.25C13.4572 14.25 14.0313 14.1145 14.5521 13.8541C15.0728 13.5937 15.5257 13.2157 15.875 12.75C16.2243 13.2157 16.6772 13.5937 17.1979 13.8541C17.7187 14.1145 18.2928 14.25 18.875 14.25C19.1269 14.2499 19.3781 14.2248 19.625 14.175V19.5ZM18.875 12.75C18.2783 12.75 17.706 12.5129 17.284 12.091C16.8621 11.669 16.625 11.0967 16.625 10.5V9.75H21.125V10.5C21.125 11.0967 20.8879 11.669 20.466 12.091C20.044 12.5129 19.4717 12.75 18.875 12.75Z" fill="#777777"/>
</g>
</svg>
