<svg width="19" height="18" viewBox="0 0 19 18" fill="none" xmlns="http://www.w3.org/2000/svg">
<g id="24:caret-down">
<path id="Vector" d="M15.5233 7.14828L9.89828 12.7733C9.84604 12.8256 9.784 12.8671 9.71572 12.8954C9.64743 12.9237 9.57423 12.9383 9.50031 12.9383C9.42639 12.9383 9.3532 12.9237 9.28491 12.8954C9.21662 12.8671 9.15458 12.8256 9.10234 12.7733L3.47734 7.14828C3.3718 7.04273 3.3125 6.89958 3.3125 6.75031C3.3125 6.60105 3.3718 6.45789 3.47734 6.35234C3.58289 6.2468 3.72605 6.1875 3.87531 6.1875C4.02458 6.1875 4.16773 6.2468 4.27328 6.35234L9.50031 11.5801L14.7273 6.35234C14.7796 6.30008 14.8417 6.25863 14.9099 6.23034C14.9782 6.20206 15.0514 6.1875 15.1253 6.1875C15.1992 6.1875 15.2724 6.20206 15.3407 6.23034C15.409 6.25863 15.471 6.30008 15.5233 6.35234C15.5755 6.40461 15.617 6.46665 15.6453 6.53493C15.6736 6.60322 15.6881 6.6764 15.6881 6.75031C15.6881 6.82422 15.6736 6.89741 15.6453 6.96569C15.617 7.03398 15.5755 7.09602 15.5233 7.14828Z" fill="#555555"/>
</g>
</svg>
