<svg width="18" height="18" viewBox="0 0 18 18" fill="none" xmlns="http://www.w3.org/2000/svg">
<g id="24:shopping-cart-simple">
<path id="Vector" d="M6.75 15.1875C6.75 15.41 6.68402 15.6275 6.5604 15.8125C6.43679 15.9975 6.26109 16.1417 6.05552 16.2269C5.84995 16.312 5.62375 16.3343 5.40552 16.2909C5.18729 16.2475 4.98684 16.1403 4.8295 15.983C4.67217 15.8257 4.56502 15.6252 4.52162 15.407C4.47821 15.1887 4.50049 14.9625 4.58564 14.757C4.67078 14.5514 4.81498 14.3757 4.99998 14.2521C5.18499 14.1285 5.4025 14.0625 5.625 14.0625C5.92337 14.0625 6.20952 14.181 6.4205 14.392C6.63147 14.603 6.75 14.8891 6.75 15.1875ZM12.9375 14.0625C12.715 14.0625 12.4975 14.1285 12.3125 14.2521C12.1275 14.3757 11.9833 14.5514 11.8981 14.757C11.813 14.9625 11.7907 15.1887 11.8341 15.407C11.8775 15.6252 11.9847 15.8257 12.142 15.983C12.2993 16.1403 12.4998 16.2475 12.718 16.2909C12.9363 16.3343 13.1625 16.312 13.368 16.2269C13.5736 16.1417 13.7493 15.9975 13.8729 15.8125C13.9965 15.6275 14.0625 15.41 14.0625 15.1875C14.0625 14.8891 13.944 14.603 13.733 14.392C13.522 14.181 13.2359 14.0625 12.9375 14.0625ZM16.2879 5.22773L14.2819 11.7464C14.1768 12.092 13.9631 12.3945 13.6726 12.609C13.3821 12.8236 13.0301 12.9388 12.6689 12.9375H5.91117C5.54483 12.9361 5.18878 12.8161 4.89636 12.5954C4.60393 12.3748 4.39087 12.0653 4.28906 11.7134L1.74516 2.8125H0.5625C0.413316 2.8125 0.270242 2.75324 0.164752 2.64775C0.0592632 2.54226 0 2.39918 0 2.25C0 2.10082 0.0592632 1.95774 0.164752 1.85225C0.270242 1.74676 0.413316 1.6875 0.5625 1.6875H1.74516C1.98943 1.68831 2.22687 1.76821 2.42194 1.91524C2.61701 2.06227 2.75921 2.26852 2.82727 2.50312L3.3975 4.5H15.75C15.838 4.49997 15.9248 4.52059 16.0034 4.56022C16.082 4.59985 16.1502 4.65737 16.2026 4.72816C16.2549 4.79894 16.2899 4.88102 16.3047 4.96779C16.3195 5.05456 16.3137 5.14359 16.2879 5.22773ZM14.9885 5.625H3.71883L5.37047 11.4047C5.40407 11.5222 5.47501 11.6255 5.57257 11.6991C5.67012 11.7727 5.78898 11.8125 5.91117 11.8125H12.6689C12.7893 11.8125 12.9065 11.774 13.0033 11.7025C13.1001 11.631 13.1714 11.5303 13.2068 11.4152L14.9885 5.625Z" fill="#555555"/>
</g>
</svg>
