<svg width="20" height="20" viewBox="0 0 20 20" fill="none" xmlns="http://www.w3.org/2000/svg">
<g id="24:chat">
<path id="Vector" d="M16.875 3.75H3.12499C2.79347 3.75 2.47553 3.8817 2.24111 4.11612C2.00669 4.35054 1.87499 4.66848 1.87499 5V17.5C1.87355 17.7384 1.94098 17.9721 2.06918 18.173C2.19738 18.374 2.38089 18.5336 2.59765 18.6328C2.76283 18.7097 2.94278 18.7497 3.12499 18.75C3.41843 18.7493 3.70214 18.6447 3.92577 18.4547C3.9295 18.4523 3.93291 18.4494 3.93593 18.4461L6.4453 16.25H16.875C17.2065 16.25 17.5245 16.1183 17.7589 15.8839C17.9933 15.6495 18.125 15.3315 18.125 15V5C18.125 4.66848 17.9933 4.35054 17.7589 4.11612C17.5245 3.8817 17.2065 3.75 16.875 3.75ZM16.875 15H6.4453C6.15095 14.9999 5.86598 15.1036 5.64062 15.293L5.63124 15.3016L3.12499 17.5V5H16.875V15Z" fill="#BBBBBB"/>
</g>
</svg>
