<svg width="17" height="16" viewBox="0 0 17 16" fill="none" xmlns="http://www.w3.org/2000/svg">
<g id="24:check-bold">
<path id="Vector" d="M15.2806 5.03002L7.2806 13.03C7.21092 13.0999 7.12813 13.1554 7.03696 13.1933C6.9458 13.2311 6.84806 13.2506 6.74935 13.2506C6.65064 13.2506 6.5529 13.2311 6.46173 13.1933C6.37057 13.1554 6.28778 13.0999 6.2181 13.03L2.7181 9.53002C2.64833 9.46026 2.59299 9.37743 2.55524 9.28628C2.51748 9.19513 2.49805 9.09743 2.49805 8.99877C2.49805 8.90011 2.51748 8.80241 2.55524 8.71126C2.59299 8.62011 2.64833 8.53728 2.7181 8.46752C2.78786 8.39776 2.87069 8.34241 2.96184 8.30466C3.05299 8.2669 3.15069 8.24747 3.24935 8.24747C3.34801 8.24747 3.44571 8.2669 3.53686 8.30466C3.62801 8.34241 3.71083 8.39776 3.7806 8.46752L6.74997 11.4369L14.2193 3.96877C14.3602 3.82787 14.5513 3.74872 14.7506 3.74872C14.9499 3.74872 15.141 3.82787 15.2818 3.96877C15.4227 4.10967 15.5019 4.30076 15.5019 4.50002C15.5019 4.69928 15.4227 4.89037 15.2818 5.03127L15.2806 5.03002Z" fill="#3E97FF"/>
</g>
</svg>
