
<svg width="16" height="16" viewBox="0 0 16 16" fill="none" xmlns="http://www.w3.org/2000/svg">
<g id="24:heart-straight">
<path id="Vector" d="M13.9377 3.56239C13.2584 2.8848 12.3385 2.50375 11.379 2.50258C10.4196 2.50141 9.49868 2.88021 8.81774 3.55614L8.00024 4.31551L7.18211 3.55364C6.50134 2.87477 5.57876 2.49414 4.61734 2.49549C3.65593 2.49683 2.73442 2.88005 2.05555 3.56083C1.37668 4.2416 0.996052 5.16418 0.9974 6.1256C0.998747 7.08701 1.38196 8.00852 2.06274 8.68739L7.64711 14.3536C7.69364 14.4009 7.74909 14.4384 7.81026 14.464C7.87142 14.4896 7.93706 14.5028 8.00336 14.5028C8.06967 14.5028 8.13531 14.4896 8.19647 14.464C8.25763 14.4384 8.31309 14.4009 8.35961 14.3536L13.9377 8.68739C14.6171 8.00763 14.9987 7.08593 14.9987 6.12489C14.9987 5.16385 14.6171 4.24215 13.9377 3.56239ZM13.2284 7.98489L8.00024 13.2874L2.76899 7.97989C2.27668 7.48758 2.00011 6.81987 2.00011 6.12364C2.00011 5.42741 2.27668 4.7597 2.76899 4.26739C3.2613 3.77508 3.92901 3.49851 4.62524 3.49851C5.32147 3.49851 5.98918 3.77508 6.48149 4.26739L6.49399 4.27989L7.65961 5.36426C7.75214 5.45037 7.87385 5.49824 8.00024 5.49824C8.12663 5.49824 8.24834 5.45037 8.34086 5.36426L9.50649 4.27989L9.51899 4.26739C10.0116 3.77541 10.6795 3.49929 11.3758 3.49976C12.072 3.50022 12.7395 3.77725 13.2315 4.26989C13.7235 4.76253 13.9996 5.43043 13.9991 6.12666C13.9987 6.82289 13.7216 7.49041 13.229 7.98239L13.2284 7.98489Z" fill="white"/>
</g>
</svg>
