<svg width="18" height="18" viewBox="0 0 18 18" fill="none" xmlns="http://www.w3.org/2000/svg">
<g id="24:heart-straight-fill">
<path id="Vector" d="M16.8748 6.89102C16.876 7.42669 16.771 7.95729 16.5658 8.45212C16.3606 8.94694 16.0594 9.39618 15.6795 9.77383L9.40059 16.1456C9.34825 16.1987 9.28586 16.2409 9.21706 16.2697C9.14825 16.2985 9.0744 16.3134 8.99981 16.3134C8.92522 16.3134 8.85137 16.2985 8.78256 16.2697C8.71376 16.2409 8.65137 16.1987 8.59903 16.1456L2.32012 9.77383C1.55462 9.00926 1.1242 7.97192 1.12354 6.88999C1.12288 5.80807 1.55204 4.77019 2.31661 4.00469C3.08118 3.23919 4.11853 2.80877 5.20045 2.80811C6.28237 2.80745 7.32025 3.23661 8.08575 4.00118L8.99981 4.85547L9.9202 3.99836C10.4915 3.42995 11.2183 3.04352 12.009 2.88787C12.7997 2.73222 13.6188 2.81431 14.3628 3.1238C15.1069 3.43328 15.7426 3.95628 16.1897 4.62676C16.6368 5.29724 16.8752 6.08515 16.8748 6.89102Z" fill="#F23B3B"/>
</g>
</svg>
