<svg width="20" height="20" viewBox="0 0 20 20" fill="none" xmlns="http://www.w3.org/2000/svg">
<g id="24:share-network">
<path id="Vector" d="M13.7502 12.4993C13.3333 12.4992 12.9205 12.5827 12.5365 12.745C12.1524 12.9072 11.8048 13.1449 11.5143 13.4439L7.91269 11.129C8.19599 10.4025 8.19599 9.59612 7.91269 8.86964L11.5143 6.5548C12.0552 7.10895 12.7827 7.4425 13.5556 7.49076C14.3286 7.53902 15.0919 7.29856 15.6976 6.81601C16.3033 6.33345 16.7083 5.64317 16.834 4.87901C16.9596 4.11484 16.7971 3.33123 16.3779 2.68009C15.9586 2.02895 15.3125 1.55668 14.5649 1.35484C13.8172 1.15299 13.0212 1.23596 12.3312 1.58765C11.6413 1.93934 11.1065 2.5347 10.8305 3.25831C10.5546 3.98191 10.5571 4.7822 10.8377 5.50402L7.23613 7.81886C6.80243 7.37361 6.2458 7.0678 5.63741 6.94054C5.02901 6.81327 4.39648 6.87032 3.82068 7.10441C3.24487 7.33849 2.75196 7.73897 2.40494 8.25464C2.05792 8.77032 1.87256 9.37776 1.87256 9.99933C1.87256 10.6209 2.05792 11.2283 2.40494 11.744C2.75196 12.2597 3.24487 12.6602 3.82068 12.8943C4.39648 13.1283 5.02901 13.1854 5.63741 13.0581C6.2458 12.9309 6.80243 12.6251 7.23613 12.1798L10.8377 14.4946C10.5964 15.1169 10.5607 15.8001 10.7358 16.4442C10.9109 17.0882 11.2876 17.6593 11.8107 18.0737C12.3339 18.4882 12.976 18.7243 13.643 18.7474C14.31 18.7706 14.9669 18.5796 15.5175 18.2024C16.0681 17.8252 16.4835 17.2816 16.7028 16.6512C16.9221 16.0208 16.9339 15.3368 16.7363 14.6993C16.5387 14.0618 16.1423 13.5043 15.6049 13.1084C15.0676 12.7125 14.4176 12.4991 13.7502 12.4993ZM13.7502 2.49933C14.121 2.49933 14.4835 2.6093 14.7919 2.81532C15.1002 3.02135 15.3405 3.31419 15.4825 3.6568C15.6244 3.99941 15.6615 4.37641 15.5892 4.74012C15.5168 5.10384 15.3382 5.43793 15.076 5.70015C14.8138 5.96238 14.4797 6.14095 14.116 6.2133C13.7523 6.28565 13.3753 6.24852 13.0327 6.1066C12.69 5.96469 12.3972 5.72437 12.1912 5.41602C11.9852 5.10768 11.8752 4.74517 11.8752 4.37433C11.8752 3.87705 12.0727 3.40013 12.4244 3.0485C12.776 2.69687 13.2529 2.49933 13.7502 2.49933ZM5.00019 11.8743C4.62935 11.8743 4.26684 11.7644 3.95849 11.5583C3.65015 11.3523 3.40983 11.0595 3.26791 10.7169C3.126 10.3742 3.08887 9.99725 3.16122 9.63354C3.23356 9.26982 3.41214 8.93573 3.67436 8.6735C3.93659 8.41128 4.27068 8.2327 4.63439 8.16036C4.99811 8.08801 5.37511 8.12514 5.71772 8.26706C6.06033 8.40897 6.35317 8.64929 6.55919 8.95764C6.76522 9.26598 6.87519 9.62849 6.87519 9.99933C6.87519 10.4966 6.67764 10.9735 6.32601 11.3252C5.97438 11.6768 5.49747 11.8743 5.00019 11.8743ZM13.7502 17.4993C13.3793 17.4993 13.0168 17.3894 12.7085 17.1833C12.4002 16.9773 12.1598 16.6845 12.0179 16.3419C11.876 15.9992 11.8389 15.6222 11.9112 15.2585C11.9836 14.8948 12.1621 14.5607 12.4244 14.2985C12.6866 14.0363 13.0207 13.8577 13.3844 13.7854C13.7481 13.713 14.1251 13.7501 14.4677 13.8921C14.8103 14.034 15.1032 14.2743 15.3092 14.5826C15.5152 14.891 15.6252 15.2535 15.6252 15.6243C15.6252 16.1216 15.4276 16.5985 15.076 16.9502C14.7244 17.3018 14.2475 17.4993 13.7502 17.4993Z" fill="#BBBBBB"/>
</g>
</svg>
