<svg width="16" height="16" viewBox="0 0 16 16" fill="none" xmlns="http://www.w3.org/2000/svg">
<g id="24:star">
<path id="Vector" d="M14.9502 6.08062C14.8897 5.89399 14.7755 5.72929 14.6221 5.60704C14.4686 5.4848 14.2825 5.4104 14.0871 5.39312L10.3752 5.07312L8.92021 1.61312C8.84446 1.43157 8.71668 1.27649 8.55297 1.16741C8.38926 1.05833 8.19693 1.00012 8.00021 1.00012C7.80349 1.00012 7.61116 1.05833 7.44745 1.16741C7.28374 1.27649 7.15596 1.43157 7.08021 1.61312L5.62958 5.07312L1.91333 5.395C1.71711 5.41149 1.53011 5.48554 1.37581 5.60788C1.2215 5.73022 1.10675 5.89539 1.04594 6.08269C0.985134 6.26999 0.980978 6.47107 1.03399 6.66071C1.08701 6.85036 1.19484 7.02014 1.34396 7.14875L4.16333 9.6125L3.31833 13.2712C3.27365 13.4627 3.2864 13.6631 3.35499 13.8474C3.42358 14.0316 3.54496 14.1916 3.70396 14.3072C3.86296 14.4229 4.05252 14.4891 4.24894 14.4976C4.44537 14.5061 4.63994 14.4565 4.80833 14.355L7.99583 12.4175L11.1902 14.355C11.3586 14.4565 11.5532 14.5061 11.7496 14.4976C11.946 14.4891 12.1356 14.4229 12.2946 14.3072C12.4536 14.1916 12.575 14.0316 12.6436 13.8474C12.7121 13.6631 12.7249 13.4627 12.6802 13.2712L11.8358 9.60875L14.6546 7.14875C14.8037 7.01969 14.9113 6.84944 14.9639 6.65938C15.0165 6.46933 15.0117 6.26797 14.9502 6.08062ZM13.999 6.39312L11.1802 8.85312C11.043 8.97246 10.941 9.12694 10.885 9.29994C10.8291 9.47295 10.8214 9.65793 10.8627 9.835L11.7096 13.5L8.51771 11.5625C8.36198 11.4677 8.18317 11.4175 8.00083 11.4175C7.8185 11.4175 7.63969 11.4677 7.48396 11.5625L4.29646 13.5L5.13771 9.8375C5.17905 9.66043 5.17134 9.47545 5.11539 9.30244C5.05945 9.12944 4.9574 8.97496 4.82021 8.85562L2.00021 6.39687C1.99998 6.395 1.99998 6.39312 2.00021 6.39125L5.71521 6.07C5.89659 6.05401 6.07015 5.98881 6.21719 5.88142C6.36423 5.77403 6.47916 5.62853 6.54958 5.46062L8.00021 2.005L9.45021 5.46062C9.52063 5.62853 9.63556 5.77403 9.7826 5.88142C9.92964 5.98881 10.1032 6.05401 10.2846 6.07L14.0002 6.39125V6.39562L13.999 6.39312Z" fill="#BBBBBB"/>
</g>
</svg>
