<svg width="20" height="20" viewBox="0 0 20 20" fill="none" xmlns="http://www.w3.org/2000/svg">
<g id="24:user">
<path id="Vector" d="M18.0403 16.5626C16.8505 14.5055 15.0169 13.0305 12.877 12.3313C13.9355 11.7012 14.7579 10.741 15.2178 9.59833C15.6778 8.45561 15.7499 7.19349 15.4232 6.0058C15.0964 4.81811 14.3888 3.77051 13.409 3.0239C12.4293 2.27728 11.2315 1.87292 9.99969 1.87292C8.76787 1.87292 7.57011 2.27728 6.59034 3.0239C5.61057 3.77051 4.90297 4.81811 4.57621 6.0058C4.24945 7.19349 4.32159 8.45561 4.78156 9.59833C5.24153 10.741 6.06389 11.7012 7.12235 12.3313C4.98251 13.0297 3.14891 14.5047 1.95907 16.5626C1.91543 16.6337 1.88649 16.7129 1.87395 16.7954C1.86141 16.8779 1.86552 16.9621 1.88604 17.043C1.90656 17.1239 1.94308 17.1998 1.99344 17.2664C2.04379 17.333 2.10697 17.3888 2.17924 17.4305C2.25151 17.4722 2.33141 17.4991 2.41423 17.5095C2.49705 17.5198 2.5811 17.5135 2.66143 17.4909C2.74176 17.4682 2.81674 17.4297 2.88195 17.3776C2.94716 17.3255 3.00127 17.2609 3.0411 17.1876C4.51297 14.6438 7.11454 13.1251 9.99969 13.1251C12.8848 13.1251 15.4864 14.6438 16.9583 17.1876C16.9981 17.2609 17.0522 17.3255 17.1174 17.3776C17.1826 17.4297 17.2576 17.4682 17.338 17.4909C17.4183 17.5135 17.5023 17.5198 17.5852 17.5095C17.668 17.4991 17.7479 17.4722 17.8201 17.4305C17.8924 17.3888 17.9556 17.333 18.0059 17.2664C18.0563 17.1998 18.0928 17.1239 18.1133 17.043C18.1339 16.9621 18.138 16.8779 18.1254 16.7954C18.1129 16.7129 18.084 16.6337 18.0403 16.5626ZM5.62469 7.50005C5.62469 6.63476 5.88128 5.7889 6.36201 5.06943C6.84274 4.34997 7.52603 3.78921 8.32545 3.45808C9.12488 3.12694 10.0045 3.0403 10.8532 3.20911C11.7019 3.37792 12.4814 3.7946 13.0933 4.40646C13.7051 5.01831 14.1218 5.79786 14.2906 6.64653C14.4594 7.4952 14.3728 8.37486 14.0417 9.17429C13.7105 9.97372 13.1498 10.657 12.4303 11.1377C11.7108 11.6185 10.865 11.8751 9.99969 11.8751C8.83975 11.8738 7.72767 11.4125 6.90747 10.5923C6.08727 9.77207 5.62593 8.65999 5.62469 7.50005Z" fill="#BBBBBB"/>
</g>
</svg>
