<svg width="41" height="40" viewBox="0 0 41 40" fill="none" xmlns="http://www.w3.org/2000/svg">
<g id="24:warning-circle">
<path id="Vector" d="M20.5 3.75C17.2861 3.75 14.1443 4.70305 11.472 6.48862C8.79969 8.27419 6.71689 10.8121 5.48696 13.7814C4.25704 16.7507 3.93524 20.018 4.56225 23.1702C5.18926 26.3224 6.73692 29.2179 9.00952 31.4905C11.2821 33.7631 14.1776 35.3107 17.3298 35.9378C20.482 36.5648 23.7493 36.243 26.7186 35.013C29.6879 33.7831 32.2258 31.7003 34.0114 29.028C35.797 26.3557 36.75 23.2139 36.75 20C36.7455 15.6916 35.0319 11.561 31.9855 8.51454C28.939 5.46806 24.8084 3.75455 20.5 3.75ZM20.5 33.75C17.7805 33.75 15.1221 32.9436 12.8609 31.4327C10.5997 29.9218 8.83737 27.7744 7.79666 25.2619C6.75596 22.7494 6.48366 19.9847 7.01421 17.3175C7.54476 14.6503 8.85432 12.2003 10.7773 10.2773C12.7003 8.35431 15.1503 7.04475 17.8175 6.5142C20.4848 5.98366 23.2494 6.25595 25.7619 7.29666C28.2744 8.33736 30.4218 10.0997 31.9327 12.3609C33.4436 14.6221 34.25 17.2805 34.25 20C34.2459 23.6455 32.7959 27.1404 30.2182 29.7182C27.6404 32.2959 24.1455 33.7459 20.5 33.75ZM19.25 21.25V12.5C19.25 12.1685 19.3817 11.8505 19.6161 11.6161C19.8505 11.3817 20.1685 11.25 20.5 11.25C20.8315 11.25 21.1495 11.3817 21.3839 11.6161C21.6183 11.8505 21.75 12.1685 21.75 12.5V21.25C21.75 21.5815 21.6183 21.8995 21.3839 22.1339C21.1495 22.3683 20.8315 22.5 20.5 22.5C20.1685 22.5 19.8505 22.3683 19.6161 22.1339C19.3817 21.8995 19.25 21.5815 19.25 21.25ZM22.375 26.875C22.375 27.2458 22.265 27.6084 22.059 27.9167C21.853 28.225 21.5601 28.4654 21.2175 28.6073C20.8749 28.7492 20.4979 28.7863 20.1342 28.714C19.7705 28.6416 19.4364 28.463 19.1742 28.2008C18.912 27.9386 18.7334 27.6045 18.661 27.2408C18.5887 26.8771 18.6258 26.5001 18.7677 26.1575C18.9096 25.8149 19.15 25.522 19.4583 25.316C19.7667 25.11 20.1292 25 20.5 25C20.9973 25 21.4742 25.1975 21.8258 25.5492C22.1775 25.9008 22.375 26.3777 22.375 26.875Z" fill="#BBBBBB"/>
</g>
</svg>
