<svg width="80" height="32" viewBox="0 0 80 32" fill="none" xmlns="http://www.w3.org/2000/svg">
<g id="Group 6580">
<path id="Vector" d="M38.4118 26.6379C36.9417 28.9676 33.8631 30.8691 30.9229 30.8691C26.8239 30.8691 24.7138 27.7171 25.2154 25.0276C26.0974 20.094 29.4009 17.7129 32.9464 17.7129C34.7278 17.7129 36.8033 19.0491 36.4574 21.1047C36.2153 23.246 33.9841 24.6165 31.9433 24.942C31.338 25.0619 30.6634 24.9934 30.1792 24.8734C29.5392 28.0255 32.2546 28.5565 32.8427 28.5565C34.5203 28.5565 36.5958 27.049 37.5816 25.6786C38.0659 25.1304 39.2592 25.4045 38.4291 26.6208L38.4118 26.6379ZM30.5251 23.4859C31.8395 23.246 33.6037 22.064 33.7074 20.4538C33.742 19.9399 33.6382 19.7 33.4307 19.7C32.9464 19.7 31.5109 20.4538 30.5251 23.4859Z" fill="#3E97FF"/>
<path id="Vector_2" d="M55.9496 26.5193C54.8773 28.1295 50.9167 31.3672 47.3884 30.7848C45.434 30.4593 45.313 28.5749 45.5551 27.5985L47.4576 21.0375C47.5441 20.712 47.5787 20.0097 46.9733 20.0097C46.2469 20.0097 45.1746 20.8319 44.1888 21.8769L42.3209 28.4379C42.1998 28.8319 42.3209 29.0375 42.4765 29.2602L42.7878 29.5342C42.5111 29.7741 42.1998 29.9968 41.8712 30.1681C41.2831 30.4936 40.4357 30.8019 39.4325 30.8019C37.6857 30.8019 36.6826 29.6884 37.0112 28.4722L39.4325 19.9754C39.5536 19.6157 39.4325 19.3759 39.3115 19.1532L39.0002 18.8791C39.2769 18.6735 39.5882 18.4508 39.9168 18.2452C40.5049 17.9198 41.3004 17.5771 42.3555 17.5771C43.8602 17.5771 44.7941 18.3994 44.8287 19.4615C46.1432 18.3994 47.7343 17.5771 49.7233 17.5771C51.1588 17.5771 53.511 18.4851 52.9229 20.4208L50.8821 27.6156C50.8475 27.8897 50.9167 28.1981 51.401 28.1981C52.8019 28.1981 54.2201 26.7077 55.1022 25.5942C55.5864 25.046 56.7798 25.2687 55.9496 26.5021V26.5193Z" fill="#3E97FF"/>
<path id="Vector_3" d="M62.2799 20.6938C62.2799 19.9915 63.3176 19.8201 63.3176 19.4775C63.3176 19.3234 63.2657 18.8437 62.3664 18.8437C61.7264 18.8437 60.7233 19.4261 60.7233 20.5054C60.7233 22.2869 64.978 23.5375 64.978 26.5524C64.978 29.122 61.8648 31.092 58.4403 31.092C55.8114 31.092 54.0127 29.2419 54.0127 27.3747C54.0127 25.833 54.9294 25.1991 55.8979 25.1991C56.8664 25.1991 57.3334 25.9871 57.3334 26.5867C57.3334 27.1863 56.901 27.3747 56.901 27.7002C56.901 28.2141 57.5064 28.7623 57.9733 28.7623C58.6825 28.7623 59.357 28.2141 59.357 27.409C59.357 26.2955 55.6212 24.925 55.6212 21.7216C55.6212 19.6317 58.2155 17.4219 61.3632 17.4219C64.511 17.4219 65.9465 18.8437 65.9465 20.2141C65.9465 21.5846 64.4245 21.9615 63.8019 21.9615C62.9198 21.9615 62.2799 21.379 62.2799 20.6938Z" fill="#3E97FF"/>
<path id="Vector_4" d="M79.696 26.6379C78.2258 28.9676 75.1473 30.8691 72.207 30.8691C68.108 30.8691 65.998 27.7171 66.4996 25.0276C67.3816 20.094 70.685 17.7129 74.2306 17.7129C76.012 17.7129 78.0875 19.0491 77.7416 21.1047C77.4994 23.246 75.2683 24.6165 73.2275 24.942C72.6221 25.0619 71.9476 24.9934 71.4633 24.8734C70.8234 28.0255 73.5388 28.5565 74.1268 28.5565C75.8045 28.5565 77.8799 27.049 78.8658 25.6786C79.35 25.1304 80.5434 25.4045 79.7132 26.6208L79.696 26.6379ZM71.8092 23.4859C73.1237 23.246 74.8878 22.064 74.9916 20.4538C75.0262 19.9399 74.9224 19.7 74.7149 19.7C74.2306 19.7 72.7951 20.4538 71.8092 23.4859Z" fill="#3E97FF"/>
<path id="Vector_5" d="M16.0675 8.03421C15.5314 6.83507 11.4324 5.25907 10.2217 5.79011C11.4324 5.25907 13.0235 1.19914 12.4874 0C13.0235 1.19914 17.1225 2.77514 18.3332 2.2441C17.1225 2.77514 15.5314 6.83507 16.0675 8.03421Z" fill="#3E97FF"/>
<path id="Vector_6" d="M30.387 5.03686C29.7124 4.33451 28.865 3.8206 27.8964 3.49512C25.5615 2.74137 22.6732 3.28955 21.1685 5.31095C20.7707 5.85913 20.494 6.44156 20.3037 7.05826C19.7849 8.73705 19.9405 10.6214 20.2864 12.3002C20.788 14.8526 21.0129 17.4393 20.0616 19.9404C19.1104 22.4415 16.9138 24.8226 14.2849 25.4222C12.3479 25.8676 10.1514 25.4736 8.49099 24.3772C5.0838 22.1331 5.1011 15.8633 8.94067 14.0475C10.6356 13.2424 12.6765 13.585 14.0428 14.8526C14.4925 15.2638 14.8557 15.7777 15.1151 16.343C15.2535 16.6342 15.3054 16.9597 15.3746 17.2852C15.4264 17.5593 15.4091 17.9704 15.7724 17.9875C16.1356 18.0047 16.4469 17.782 16.6544 17.525C17.6403 16.3773 17.7786 14.5614 17.1041 13.2424C16.3085 11.6835 14.4752 10.433 12.5208 10.1075C9.09633 9.54218 5.67184 10.4672 3.35426 12.5743C3.23319 12.6771 3.12942 12.7799 3.02565 12.8998C-0.0529306 15.9661 -0.88311 21.1053 1.00209 25.1309C2.8181 29.0024 7.05547 31.7604 11.5177 32.0003C11.7425 32.0003 11.9674 32.0003 12.1749 32.0003C14.1985 32.0003 16.101 31.5035 17.6921 30.5613C19.5255 29.465 21.5144 27.6834 22.6732 25.4222C24.5757 21.7048 24.593 17.4393 23.9012 13.4137C23.6245 11.8719 23.1056 9.97045 24.0741 8.58288C24.6795 7.70922 25.6999 7.22957 26.7203 7.70922C27.2046 7.93192 27.5678 8.34305 27.7926 8.83983C27.9656 9.23384 28.0348 9.6621 28.0175 10.0732C27.9829 11.0154 27.5505 11.9405 27.0835 12.797C27.0144 12.934 27.0144 13.0882 27.0835 13.2252C27.17 13.3623 27.3084 13.4308 27.4467 13.4308C29.3319 13.3965 31.1134 12.0261 31.6841 10.1931C32.2376 8.44583 31.7187 6.42443 30.387 5.03686Z" fill="#3E97FF"/>
</g>
</svg>
